<?xml version="1.0" encoding="utf-8"?>
<!-- Generator: Adobe Illustrator 23.0.4, SVG Export Plug-In . SVG Version: 6.00 Build 0)  -->
<svg version="1.1" id="Layer_1" xmlns="http://www.w3.org/2000/svg" xmlns:xlink="http://www.w3.org/1999/xlink" x="0px" y="0px"
	 viewBox="0 0 185 74" style="enable-background:new 0 0 185 74;" xml:space="preserve">
<style type="text/css">
	.st0{opacity:0.11;}
	.st1{fill:url(#SVGID_1_);}
	.st2{fill:url(#SVGID_2_);}
	.st3{fill:url(#SVGID_3_);}
	.st4{fill:url(#SVGID_4_);}
	.st5{fill:url(#SVGID_5_);}
	.st6{fill:url(#SVGID_6_);}
	.st7{fill:url(#SVGID_7_);}
	.st8{fill:url(#SVGID_8_);}
	.st9{fill:url(#SVGID_9_);}
	.st10{fill:url(#SVGID_10_);}
	.st11{fill:url(#SVGID_11_);}
	.st12{fill:url(#SVGID_12_);}
	.st13{fill:url(#SVGID_13_);}
	.st14{fill:url(#SVGID_14_);}
	.st15{fill:url(#SVGID_15_);}
</style>
<path class="st0" d="M45.1,34.3c-0.5,4.1-3.1,7.5-6.7,9.2l-8.5-6.6l0,0c1,0.7,2.2,1.2,3.5,1.2c3.1,0,5.7-2.5,5.7-5.7
	c0-1.8-0.8-3.4-2.2-4.5l0,0L45.1,34.3z"/>
<path class="st0" d="M55.8,32.7c0,12-9.4,21.8-21.3,22.4l-11.4-8.8c2.8,2.2,6.4,3.5,10.3,3.5c9.4,0,17-7.6,17-17
	c0-5.2-2.3-9.8-6-12.9l10.9,8.5C55.6,29.7,55.8,31.2,55.8,32.7z"/>
<path class="st0" d="M66.3,31.2c0,0.1,0,0.3,0,0.4c0,0.4,0,0.9,0,1.3c-0.7,13.8-9.6,25.4-21.9,30c-0.1,0-0.3,0.1-0.4,0.1
	c-0.4,0.1-0.8,0.3-1.2,0.4c-0.1,0-0.3,0.1-0.4,0.1c-0.8,0.2-1.6,0.5-2.4,0.7c-0.3,0.1-0.5,0.1-0.8,0.2c-0.7,0.1-1.4,0.3-2.1,0.4
	c-0.1,0-0.3,0-0.4,0.1c-0.3,0-0.6,0.1-0.9,0.1c-0.1,0-0.3,0-0.4,0c-0.3,0-0.6,0-0.9,0.1c-0.7,0-1.5,0.1-2.2,0.1
	c-0.7,0-1.5,0-2.2-0.1c-0.1,0-0.2,0-0.3,0L14.3,53l0,0c4.9,4,11.1,6.4,17.9,6.4c15.6,0,28.3-12.6,28.3-28.3
	c0-9.4-4.5-17.7-11.5-22.8l0,0l15.5,12c0.5,1.5,0.9,3.1,1.2,4.8c0.1,0.4,0.1,0.8,0.2,1.3c0,0.3,0.1,0.6,0.1,0.9
	c0,0.3,0.1,0.6,0.1,0.9c0,0.1,0,0.3,0,0.4c0,0.3,0,0.6,0.1,0.9C66.3,30,66.3,30.6,66.3,31.2z"/>
<g>
	<linearGradient id="SVGID_1_" gradientUnits="userSpaceOnUse" x1="23.2607" y1="20.6071" x2="83.9494" y2="93.3242">
		<stop  offset="0" style="stop-color:#E6379E"/>
		<stop  offset="1" style="stop-color:#93278F"/>
	</linearGradient>
	<path class="st1" d="M33.4,4.4C17.7,4.4,5.1,17,5,32.6C5,48.3,17.7,60.9,33.3,61c15.6,0,28.3-12.6,28.3-28.3
		C61.6,17.1,49,4.4,33.4,4.4z M33.3,55.1c-12.4,0-22.4-10.1-22.4-22.4c0-12.4,10.1-22.4,22.4-22.4c12.4,0,22.4,10.1,22.4,22.4
		C55.7,45.1,45.7,55.1,33.3,55.1z"/>
	<linearGradient id="SVGID_2_" gradientUnits="userSpaceOnUse" x1="23.2606" y1="20.6072" x2="83.9493" y2="93.3243">
		<stop  offset="0" style="stop-color:#E6379E"/>
		<stop  offset="1" style="stop-color:#93278F"/>
	</linearGradient>
	<path class="st2" d="M33.3,15.7c-9.4,0-17,7.6-17,17c0,9.4,7.6,17,17,17c9.4,0,17-7.6,17-17C50.3,23.3,42.7,15.7,33.3,15.7z
		 M33.3,44.6c-6.5,0-11.8-5.3-11.8-11.9c0-6.5,5.3-11.8,11.9-11.8c6.5,0,11.8,5.3,11.8,11.9C45.2,39.3,39.9,44.6,33.3,44.6z"/>
	<linearGradient id="SVGID_3_" gradientUnits="userSpaceOnUse" x1="23.3978" y1="20.4927" x2="84.0865" y2="93.2098">
		<stop  offset="0" style="stop-color:#E6379E"/>
		<stop  offset="1" style="stop-color:#93278F"/>
	</linearGradient>
	<path class="st3" d="M31.1,27.2c-2.9,1.3-4.2,4.6-2.9,7.5c1.3,2.9,4.6,4.2,7.5,2.9c2.9-1.3,4.2-4.6,2.9-7.5
		C37.3,27.2,33.9,25.9,31.1,27.2z"/>
	<linearGradient id="SVGID_4_" gradientUnits="userSpaceOnUse" x1="46.1478" y1="1.5058" x2="106.8365" y2="74.223">
		<stop  offset="0" style="stop-color:#E6379E"/>
		<stop  offset="1" style="stop-color:#93278F"/>
	</linearGradient>
	<path class="st4" d="M86.8,40.1L86.4,36H72.2l-0.3,4.1h3.7v7.5c0,4.2,2.3,6.6,6.5,6.6c1.4,0,2.9-0.4,4.5-1.3l-1.3-3.8
		c-1,0.6-2,0.8-2.9,0.8c-1.5,0-2.2-0.9-2.2-2.6v-7.2H86.8z"/>
	<linearGradient id="SVGID_5_" gradientUnits="userSpaceOnUse" x1="56.1772" y1="-6.8645" x2="116.8659" y2="65.8526">
		<stop  offset="0" style="stop-color:#E6379E"/>
		<stop  offset="1" style="stop-color:#93278F"/>
	</linearGradient>
	<path class="st5" d="M102.2,37.8c-1.5-1.3-3.4-1.9-5.7-1.9c-2.3,0-4.3,0.9-6,2.6C88.8,40.2,88,42.4,88,45s0.8,4.8,2.5,6.6
		c1.7,1.7,3.7,2.6,6,2.6c2.3,0,4.2-0.6,5.7-1.9v1.4h4.6V36.4h-4.6V37.8z M100.7,48.8c-1,0.9-2.2,1.4-3.4,1.4c-2.8,0-4.9-2-4.9-5.2
		s2-5.2,4.9-5.2c1.3,0,2.4,0.5,3.4,1.5c1,1,1.5,2.2,1.5,3.7C102.2,46.6,101.7,47.8,100.7,48.8z"/>
	<linearGradient id="SVGID_6_" gradientUnits="userSpaceOnUse" x1="66.9052" y1="-15.818" x2="127.5939" y2="56.8991">
		<stop  offset="0" style="stop-color:#E6379E"/>
		<stop  offset="1" style="stop-color:#93278F"/>
	</linearGradient>
	<path class="st6" d="M116.2,39.4v-3h-4.6v17.3h4.6v-5.6c0-5,2-7.4,6.2-7.4h1l0.2-4.4c-0.3-0.1-0.7-0.1-1.2-0.1
		C119.7,36.1,117.6,37.2,116.2,39.4z"/>
	<linearGradient id="SVGID_7_" gradientUnits="userSpaceOnUse" x1="75.364" y1="-22.8776" x2="136.0528" y2="49.8395">
		<stop  offset="0" style="stop-color:#E6379E"/>
		<stop  offset="1" style="stop-color:#93278F"/>
	</linearGradient>
	<path class="st7" d="M139.2,37.8c-1.5-1.3-3.4-1.9-5.7-1.9c-2.3,0-4.3,0.9-6,2.6c-1.7,1.7-2.5,3.9-2.5,6.6s0.8,4.8,2.5,6.6
		c1.7,1.7,3.7,2.6,6,2.6c2.3,0,4.2-0.6,5.7-1.9v2.5c0,2.9-2.1,4.5-5.2,4.5c-2.2,0-3.3-0.7-4.7-2.5l-3.7,3.2c1.6,2.5,4.4,3.8,8.4,3.8
		c2.9,0,5.2-0.7,7-2.2c1.8-1.5,2.7-3.5,2.7-6.1V36.4h-4.6V37.8z M137.7,48.8c-1,0.9-2.2,1.4-3.4,1.4c-2.8,0-4.9-2-4.9-5.2
		s2-5.2,4.9-5.2c1.3,0,2.4,0.5,3.4,1.5c1,1,1.5,2.2,1.5,3.7C139.2,46.6,138.7,47.8,137.7,48.8z"/>
	<linearGradient id="SVGID_8_" gradientUnits="userSpaceOnUse" x1="89.5477" y1="-34.7152" x2="150.2365" y2="38.002">
		<stop  offset="0" style="stop-color:#E6379E"/>
		<stop  offset="1" style="stop-color:#93278F"/>
	</linearGradient>
	<path class="st8" d="M156.2,35.8c-2.5,0-4.7,0.9-6.4,2.6c-1.7,1.7-2.6,3.9-2.6,6.6c0,2.7,0.9,4.9,2.6,6.6c1.7,1.7,3.8,2.6,6.3,2.6
		c3.9,0,6.9-1.8,8.4-5.3l-4.1-0.9c-0.9,1.5-2.3,2.3-4.3,2.3c-2.1,0-3.9-1.6-4.3-4H165v-1.6c-0.1-2.6-1-4.7-2.7-6.4
		C160.6,36.7,158.6,35.8,156.2,35.8z M151.9,43c0.5-2,2.4-3.2,4.3-3.2c1.9,0,3.5,1.1,4.1,3.2H151.9z"/>
	<linearGradient id="SVGID_9_" gradientUnits="userSpaceOnUse" x1="101.7019" y1="-44.8589" x2="162.3906" y2="27.8583">
		<stop  offset="0" style="stop-color:#E6379E"/>
		<stop  offset="1" style="stop-color:#93278F"/>
	</linearGradient>
	<path class="st9" d="M181,40.1v-3.7h-6.7v-7.7l-4.6,1.4v6.3H166v3.7h3.7v7.5c0,4.2,2.3,6.6,6.5,6.6c1.4,0,2.9-0.4,4.5-1.3l-1.3-3.8
		c-1,0.6-2,0.8-2.9,0.8c-1.5,0-2.2-0.9-2.2-2.6v-7.2H181z"/>
	<linearGradient id="SVGID_10_" gradientUnits="userSpaceOnUse" x1="50.6579" y1="-2.2583" x2="111.3467" y2="70.4589">
		<stop  offset="0" style="stop-color:#E6379E"/>
		<stop  offset="1" style="stop-color:#93278F"/>
	</linearGradient>
	<path class="st10" d="M73.6,27.8c0.7,0.9,1.7,1.4,3,1.4c1,0,1.9-0.4,2.6-1.1c0.7-0.7,1.1-1.7,1.1-2.9c0-1.2-0.4-2.1-1.1-2.8
		c-0.7-0.7-1.6-1.1-2.6-1.1c-1.3,0-2.3,0.5-3,1.4v-1.2h-1.2v11.8h1.2V27.8z M74.4,23.2c0.6-0.6,1.2-0.8,2-0.8c0.8,0,1.5,0.3,2,0.8
		c0.5,0.5,0.8,1.3,0.8,2.1c0,0.9-0.3,1.6-0.8,2.1c-0.5,0.5-1.2,0.8-2,0.8c-0.7,0-1.4-0.3-2-0.8c-0.6-0.6-0.8-1.3-0.8-2.1
		C73.6,24.4,73.8,23.7,74.4,23.2z"/>
	<linearGradient id="SVGID_11_" gradientUnits="userSpaceOnUse" x1="57.1757" y1="-7.6979" x2="117.8645" y2="65.0192">
		<stop  offset="0" style="stop-color:#E6379E"/>
		<stop  offset="1" style="stop-color:#93278F"/>
	</linearGradient>
	<path class="st11" d="M83.5,23.3v-1.8h-1.2V29h1.2v-2.9c0-1.1,0.3-1.9,0.8-2.6c0.5-0.7,1.3-1,2.2-1c0.2,0,0.4,0,0.4,0l0.1-1.1
		c-0.1,0-0.3-0.1-0.5-0.1C85.1,21.4,84.1,22,83.5,23.3z"/>
	<linearGradient id="SVGID_12_" gradientUnits="userSpaceOnUse" x1="63.1399" y1="-12.6755" x2="123.8286" y2="60.0416">
		<stop  offset="0" style="stop-color:#E6379E"/>
		<stop  offset="1" style="stop-color:#93278F"/>
	</linearGradient>
	<path class="st12" d="M89.3,19.5c0.5,0,0.8-0.3,0.8-0.8c0-0.4-0.4-0.8-0.8-0.8c-0.4,0-0.8,0.4-0.8,0.8
		C88.5,19.1,88.9,19.5,89.3,19.5z"/>
	<linearGradient id="SVGID_13_" gradientUnits="userSpaceOnUse" x1="59.9036" y1="-9.9746" x2="120.5923" y2="62.7426">
		<stop  offset="0" style="stop-color:#E6379E"/>
		<stop  offset="1" style="stop-color:#93278F"/>
	</linearGradient>
	<rect x="88.7" y="21.5" class="st13" width="1.2" height="7.5"/>
	<linearGradient id="SVGID_14_" gradientUnits="userSpaceOnUse" x1="63.5654" y1="-13.0306" x2="124.2541" y2="59.6865">
		<stop  offset="0" style="stop-color:#E6379E"/>
		<stop  offset="1" style="stop-color:#93278F"/>
	</linearGradient>
	<path class="st14" d="M93.9,25.4c0-1.9,1-3,2.6-3c1.2,0,2.1,0.9,2.1,2.4V29h1.2v-4.5c0-1-0.3-1.7-0.8-2.3c-0.6-0.6-1.3-0.9-2.2-0.9
		c-1.3,0-2.2,0.5-2.8,1.4v-1.3h-1.2V29h1.2V25.4z"/>
	<linearGradient id="SVGID_15_" gradientUnits="userSpaceOnUse" x1="69.3288" y1="-17.8407" x2="130.012" y2="54.8697">
		<stop  offset="0" style="stop-color:#E6379E"/>
		<stop  offset="1" style="stop-color:#93278F"/>
	</linearGradient>
	<path class="st15" d="M103.7,18l-1.2,0.4v3.1h-1.6v1h1.6v4.3c0,1.5,0.9,2.5,2.4,2.5c0.6,0,1.2-0.2,1.7-0.6l-0.4-1
		c-0.4,0.3-0.9,0.5-1.3,0.5c-0.8,0-1.3-0.6-1.3-1.5v-4.2h3.3v-1h-3.3V18z"/>
</g>
</svg>
