<?xml version="1.0" encoding="utf-8"?>
<!-- Generator: Adobe Illustrator 23.0.4, SVG Export Plug-In . SVG Version: 6.00 Build 0)  -->
<svg version="1.1" id="Layer_1" xmlns="http://www.w3.org/2000/svg" xmlns:xlink="http://www.w3.org/1999/xlink" x="0px" y="0px"
	 viewBox="0 0 185 74" style="enable-background:new 0 0 185 74;" xml:space="preserve">
<style type="text/css">
	.st0{opacity:0.11;}
	.st1{fill:url(#SVGID_1_);}
	.st2{fill:url(#SVGID_2_);}
	.st3{fill:url(#SVGID_3_);}
	.st4{fill:url(#SVGID_4_);}
	.st5{fill:url(#SVGID_5_);}
	.st6{fill:url(#SVGID_6_);}
	.st7{fill:url(#SVGID_7_);}
	.st8{fill:url(#SVGID_8_);}
	.st9{fill:url(#SVGID_9_);}
	.st10{fill:url(#SVGID_10_);}
	.st11{fill:url(#SVGID_11_);}
	.st12{fill:url(#SVGID_12_);}
	.st13{fill:url(#SVGID_13_);}
	.st14{fill:url(#SVGID_14_);}
	.st15{fill:url(#SVGID_15_);}
</style>
<path class="st0" d="M44.5,36.8c-0.5,4.1-3.1,7.5-6.7,9.2l-8.5-6.6l0,0c1,0.7,2.2,1.2,3.5,1.2c3.1,0,5.7-2.5,5.7-5.7
	c0-1.8-0.8-3.4-2.2-4.5l0,0L44.5,36.8z"/>
<path class="st0" d="M55.2,35.2c0,12-9.4,21.8-21.3,22.4l-11.4-8.8c2.8,2.2,6.4,3.5,10.3,3.5c9.4,0,17-7.6,17-17
	c0-5.2-2.3-9.8-6-12.9l10.9,8.5C55.1,32.2,55.2,33.7,55.2,35.2z"/>
<path class="st0" d="M65.8,33.7c0,0.1,0,0.3,0,0.4c0,0.4,0,0.9,0,1.3c-0.7,13.8-9.6,25.4-21.9,30c-0.1,0-0.3,0.1-0.4,0.1
	c-0.4,0.1-0.8,0.3-1.2,0.4c-0.1,0-0.3,0.1-0.4,0.1c-0.8,0.2-1.6,0.5-2.4,0.7c-0.3,0.1-0.5,0.1-0.8,0.2c-0.7,0.1-1.4,0.3-2.1,0.4
	c-0.1,0-0.3,0-0.4,0.1c-0.3,0-0.6,0.1-0.9,0.1c-0.1,0-0.3,0-0.4,0c-0.3,0-0.6,0-0.9,0.1c-0.7,0-1.5,0.1-2.2,0.1
	c-0.7,0-1.5,0-2.2-0.1c-0.1,0-0.2,0-0.3,0l-15.4-12l0,0c4.9,4,11.1,6.4,17.9,6.4C47.4,62,60,49.3,60.1,33.7
	c0-9.4-4.5-17.7-11.5-22.8l0,0l15.5,12c0.5,1.5,0.9,3.1,1.2,4.8c0.1,0.4,0.1,0.8,0.2,1.3c0,0.3,0.1,0.6,0.1,0.9
	c0,0.3,0.1,0.6,0.1,0.9c0,0.1,0,0.3,0,0.4c0,0.3,0,0.6,0.1,0.9C65.8,32.5,65.8,33.1,65.8,33.7z"/>
<g>
	<linearGradient id="SVGID_1_" gradientUnits="userSpaceOnUse" x1="72.7016" y1="71.0933" x2="105.2123" y2="100.353">
		<stop  offset="0" style="stop-color:#E6379E"/>
		<stop  offset="1" style="stop-color:#93278F"/>
	</linearGradient>
	<path class="st1" d="M32.8,18.2c-9.4,0-17,7.6-17,17c0,9.4,7.6,17,17,17c9.4,0,17-7.6,17-17C49.8,25.8,42.2,18.2,32.8,18.2z
		 M32.8,47.1c-6.5,0-11.8-5.3-11.8-11.9c0-6.5,5.3-11.8,11.9-11.8c6.5,0,11.8,5.3,11.8,11.9C44.6,41.8,39.3,47.1,32.8,47.1z"/>
	<linearGradient id="SVGID_2_" gradientUnits="userSpaceOnUse" x1="72.8402" y1="70.9394" x2="105.3509" y2="100.1991">
		<stop  offset="0" style="stop-color:#E6379E"/>
		<stop  offset="1" style="stop-color:#93278F"/>
	</linearGradient>
	<path class="st2" d="M30.5,29.7c-2.9,1.3-4.2,4.6-2.9,7.5c1.3,2.9,4.6,4.2,7.5,2.9c2.9-1.3,4.2-4.6,2.9-7.5
		C36.8,29.7,33.4,28.4,30.5,29.7z"/>
	<linearGradient id="SVGID_3_" gradientUnits="userSpaceOnUse" x1="72.7017" y1="71.0933" x2="105.2124" y2="100.3529">
		<stop  offset="0" style="stop-color:#E6379E"/>
		<stop  offset="1" style="stop-color:#93278F"/>
	</linearGradient>
	<path class="st3" d="M32.8,6.9C17.2,6.9,4.5,19.5,4.5,35.1c0,15.6,12.6,28.3,28.3,28.3c15.6,0,28.3-12.6,28.3-28.3
		C61.1,19.6,48.4,6.9,32.8,6.9z M32.8,57.6c-12.4,0-22.4-10.1-22.4-22.4c0-12.4,10.1-22.4,22.4-22.4c12.4,0,22.4,10.1,22.4,22.4
		C55.2,47.6,45.1,57.6,32.8,57.6z"/>
	<linearGradient id="SVGID_4_" gradientUnits="userSpaceOnUse" x1="100.4207" y1="40.2944" x2="132.9314" y2="69.5541">
		<stop  offset="0" style="stop-color:#E6379E"/>
		<stop  offset="1" style="stop-color:#93278F"/>
	</linearGradient>
	<path class="st4" d="M98.7,29.3c-1.5-1.3-3.4-1.9-5.7-1.9c-2.3,0-4.3,0.9-6,2.6c-1.7,1.7-2.5,3.9-2.5,6.6s0.8,4.8,2.5,6.6
		c1.7,1.7,3.7,2.6,6,2.6c2.3,0,4.2-0.6,5.7-1.9v1.4h4.6V27.9h-4.6V29.3z M97.2,40.3c-1,0.9-2.2,1.4-3.4,1.4c-2.8,0-4.9-2-4.9-5.2
		s2-5.2,4.9-5.2c1.3,0,2.4,0.5,3.4,1.5c1,1,1.5,2.2,1.5,3.7C98.7,38.1,98.2,39.3,97.2,40.3z"/>
	<linearGradient id="SVGID_5_" gradientUnits="userSpaceOnUse" x1="108.4416" y1="31.3823" x2="140.9523" y2="60.6419">
		<stop  offset="0" style="stop-color:#E6379E"/>
		<stop  offset="1" style="stop-color:#93278F"/>
	</linearGradient>
	<path class="st5" d="M112.7,30.9v-3h-4.6v17.3h4.6v-5.6c0-5,2-7.4,6.2-7.4h1l0.2-4.4c-0.3-0.1-0.7-0.1-1.2-0.1
		C116.2,27.6,114.1,28.7,112.7,30.9z"/>
	<linearGradient id="SVGID_6_" gradientUnits="userSpaceOnUse" x1="114.3948" y1="24.7676" x2="146.9055" y2="54.0272">
		<stop  offset="0" style="stop-color:#E6379E"/>
		<stop  offset="1" style="stop-color:#93278F"/>
	</linearGradient>
	<path class="st6" d="M135.7,29.3c-1.5-1.3-3.4-1.9-5.7-1.9c-2.3,0-4.3,0.9-6,2.6c-1.7,1.7-2.5,3.9-2.5,6.6s0.8,4.8,2.5,6.6
		c1.7,1.7,3.7,2.6,6,2.6c2.3,0,4.2-0.6,5.7-1.9v2.5c0,2.9-2.1,4.5-5.2,4.5c-2.2,0-3.3-0.7-4.7-2.5l-3.7,3.2c1.6,2.5,4.4,3.8,8.4,3.8
		c2.9,0,5.2-0.7,7-2.2c1.8-1.5,2.7-3.5,2.7-6.1V27.9h-4.6V29.3z M134.2,40.3c-1,0.9-2.2,1.4-3.4,1.4c-2.8,0-4.9-2-4.9-5.2
		s2-5.2,4.9-5.2c1.3,0,2.4,0.5,3.4,1.5c1,1,1.5,2.2,1.5,3.7C135.7,38.1,135.2,39.3,134.2,40.3z"/>
	<linearGradient id="SVGID_7_" gradientUnits="userSpaceOnUse" x1="125.6233" y1="12.2915" x2="158.134" y2="41.5512">
		<stop  offset="0" style="stop-color:#E6379E"/>
		<stop  offset="1" style="stop-color:#93278F"/>
	</linearGradient>
	<path class="st7" d="M152.7,27.3c-2.5,0-4.7,0.9-6.4,2.6c-1.7,1.7-2.6,3.9-2.6,6.6c0,2.7,0.9,4.9,2.6,6.6c1.7,1.7,3.8,2.6,6.3,2.6
		c3.9,0,6.9-1.8,8.4-5.3l-4.1-0.9c-0.9,1.5-2.3,2.3-4.3,2.3c-2.1,0-3.9-1.6-4.3-4h13.2v-1.6c-0.1-2.6-1-4.7-2.7-6.4
		C157.1,28.2,155,27.3,152.7,27.3z M148.4,34.5c0.5-2,2.4-3.2,4.3-3.2c1.9,0,3.5,1.1,4.1,3.2H148.4z"/>
	<linearGradient id="SVGID_8_" gradientUnits="userSpaceOnUse" x1="135.3369" y1="1.4986" x2="167.8476" y2="30.7582">
		<stop  offset="0" style="stop-color:#E6379E"/>
		<stop  offset="1" style="stop-color:#93278F"/>
	</linearGradient>
	<path class="st8" d="M177.5,31.6v-3.7h-6.7v-7.7l-4.6,1.4v6.3h-3.7v3.7h3.7v7.5c0,4.2,2.3,6.6,6.5,6.6c1.4,0,2.9-0.4,4.5-1.3
		l-1.3-3.8c-1,0.6-2,0.8-2.9,0.8c-1.5,0-2.2-0.9-2.2-2.6v-7.2H177.5z"/>
	<linearGradient id="SVGID_9_" gradientUnits="userSpaceOnUse" x1="112.2077" y1="27.1977" x2="144.7184" y2="56.4574">
		<stop  offset="0" style="stop-color:#E6379E"/>
		<stop  offset="1" style="stop-color:#93278F"/>
	</linearGradient>
	<path class="st9" d="M148.3,53.1c-1.2,0-2.1,0.4-2.7,1.3v-1.1h-1.1V64h1.1v-5c0.6,0.8,1.5,1.3,2.7,1.3c0.9,0,1.7-0.3,2.4-1
		c0.7-0.7,1-1.5,1-2.6c0-1.1-0.3-1.9-1-2.6C150,53.4,149.2,53.1,148.3,53.1z M149.9,58.6c-0.5,0.5-1.1,0.7-1.8,0.7
		c-0.7,0-1.3-0.2-1.8-0.7c-0.5-0.5-0.8-1.1-0.8-1.9c0-0.8,0.2-1.4,0.8-1.9c0.5-0.5,1.1-0.7,1.8-0.7c0.7,0,1.3,0.2,1.8,0.7
		c0.5,0.5,0.7,1.1,0.7,1.9C150.7,57.5,150.4,58.1,149.9,58.6z"/>
	<linearGradient id="SVGID_10_" gradientUnits="userSpaceOnUse" x1="116.9905" y1="21.8835" x2="149.5012" y2="51.1431">
		<stop  offset="0" style="stop-color:#E6379E"/>
		<stop  offset="1" style="stop-color:#93278F"/>
	</linearGradient>
	<path class="st10" d="M154.6,54.9v-1.7h-1.1v6.8h1.1v-2.6c0-1,0.2-1.7,0.7-2.3c0.5-0.6,1.2-0.9,2-0.9c0.2,0,0.3,0,0.4,0l0.1-1
		c-0.1,0-0.3-0.1-0.5-0.1C156.1,53.2,155.1,53.8,154.6,54.9z"/>
	<linearGradient id="SVGID_11_" gradientUnits="userSpaceOnUse" x1="121.8337" y1="16.5021" x2="154.3444" y2="45.7618">
		<stop  offset="0" style="stop-color:#E6379E"/>
		<stop  offset="1" style="stop-color:#93278F"/>
	</linearGradient>
	<path class="st11" d="M159.8,50c-0.4,0-0.7,0.3-0.7,0.7c0,0.4,0.3,0.7,0.7,0.7c0.4,0,0.7-0.3,0.7-0.7C160.6,50.3,160.2,50,159.8,50
		z"/>
	<linearGradient id="SVGID_12_" gradientUnits="userSpaceOnUse" x1="118.8676" y1="19.7978" x2="151.3783" y2="49.0575">
		<stop  offset="0" style="stop-color:#E6379E"/>
		<stop  offset="1" style="stop-color:#93278F"/>
	</linearGradient>
	<rect x="159.3" y="53.3" class="st12" width="1.1" height="6.8"/>
	<linearGradient id="SVGID_13_" gradientUnits="userSpaceOnUse" x1="121.3509" y1="17.0386" x2="153.8616" y2="46.2983">
		<stop  offset="0" style="stop-color:#E6379E"/>
		<stop  offset="1" style="stop-color:#93278F"/>
	</linearGradient>
	<path class="st13" d="M166.6,53.1c-1.1,0-2,0.4-2.6,1.3v-1.1h-1.1v6.8h1.1v-3.3c0-1.7,0.9-2.7,2.4-2.7c1.1,0,1.9,0.9,1.9,2.1v3.9
		h1.1V56c0-0.9-0.3-1.6-0.8-2.1C168.1,53.4,167.4,53.1,166.6,53.1z"/>
	<linearGradient id="SVGID_14_" gradientUnits="userSpaceOnUse" x1="125.4944" y1="12.4348" x2="158.0051" y2="41.6944">
		<stop  offset="0" style="stop-color:#E6379E"/>
		<stop  offset="1" style="stop-color:#93278F"/>
	</linearGradient>
	<path class="st14" d="M172.9,50.1l-1.1,0.3v2.8h-1.5v0.9h1.5V58c0,1.4,0.8,2.2,2.2,2.2c0.5,0,1.1-0.2,1.6-0.5l-0.3-0.9
		c-0.4,0.3-0.8,0.4-1.2,0.4c-0.7,0-1.2-0.5-1.2-1.3v-3.8h3v-0.9h-3V50.1z"/>
	<linearGradient id="SVGID_15_" gradientUnits="userSpaceOnUse" x1="93.2706" y1="48.2389" x2="125.7813" y2="77.4985">
		<stop  offset="0" style="stop-color:#E6379E"/>
		<stop  offset="1" style="stop-color:#93278F"/>
	</linearGradient>
	<path class="st15" d="M76.8,20.2l-4.6,1.4v6.3h-3.7v3.7h3.7v7.5c0,4.2,2.3,6.6,6.5,6.6c1.4,0,2.9-0.4,4.5-1.3l-1.3-3.8
		c-1,0.6-2,0.8-2.9,0.8c-1.5,0-2.2-0.9-2.2-2.6v-7.2h6.7v-3.7h-6.7V20.2z"/>
</g>
</svg>
