<?xml version="1.0" encoding="utf-8"?>
<!-- Generator: Adobe Illustrator 23.0.4, SVG Export Plug-In . SVG Version: 6.00 Build 0)  -->
<svg version="1.1" id="Layer_1" xmlns="http://www.w3.org/2000/svg" xmlns:xlink="http://www.w3.org/1999/xlink" x="0px" y="0px"
	 viewBox="0 0 185 74" style="enable-background:new 0 0 185 74;" xml:space="preserve">
<style type="text/css">
	.st0{opacity:0.11;enable-background:new    ;}
	.st1{fill:url(#SVGID_1_);}
	.st2{fill:url(#SVGID_2_);}
	.st3{fill:url(#SVGID_3_);}
	.st4{fill:url(#SVGID_4_);}
	.st5{fill:url(#SVGID_5_);}
	.st6{fill:url(#SVGID_6_);}
	.st7{fill:url(#SVGID_7_);}
	.st8{fill:url(#SVGID_8_);}
	.st9{fill:url(#SVGID_9_);}
	.st10{fill:url(#SVGID_10_);}
	.st11{fill:url(#SVGID_11_);}
	.st12{fill:url(#SVGID_12_);}
	.st13{fill:url(#SVGID_13_);}
	.st14{fill:url(#SVGID_14_);}
	.st15{fill:url(#SVGID_15_);}
</style>
<g>
	<path class="st0" d="M48.8,35.6c-0.5,3.7-2.8,6.8-6.1,8.3l-7.7-6l0,0c0.9,0.7,2,1.1,3.1,1.1c2.8,0,5.2-2.3,5.2-5.1
		c0-1.6-0.8-3.1-2-4.1l0,0L48.8,35.6z"/>
	<path class="st0" d="M58.4,34.2c0,10.9-8.6,19.7-19.3,20.2l-10.3-8c2.6,2,5.8,3.1,9.3,3.1c8.5,0,15.4-6.9,15.4-15.4
		c0-4.7-2.1-8.9-5.4-11.7l9.9,7.7C58.3,31.4,58.4,32.8,58.4,34.2z"/>
	<path class="st0" d="M68,32.8c0,0.1,0,0.3,0,0.4c0,0.4,0,0.8,0,1.2c-0.7,12.4-8.7,22.9-19.9,27.1c-0.1,0-0.2,0.1-0.4,0.1
		c-0.4,0.1-0.7,0.3-1.1,0.4c-0.1,0-0.2,0.1-0.4,0.1c-0.7,0.2-1.5,0.4-2.2,0.6c-0.2,0.1-0.5,0.1-0.7,0.2c-0.6,0.1-1.3,0.2-1.9,0.3
		c-0.1,0-0.3,0-0.4,0.1c-0.3,0-0.5,0.1-0.8,0.1c-0.1,0-0.3,0-0.4,0c-0.3,0-0.5,0-0.8,0.1c-0.7,0-1.3,0.1-2,0.1s-1.3,0-2-0.1
		c-0.1,0-0.2,0-0.3,0l-13.8-11l0,0c4.4,3.6,10.1,5.8,16.2,5.8c14.1,0,25.6-11.4,25.6-25.6c0-8.5-4.1-16-10.4-20.7l0,0l14,10.9
		c0.5,1.4,0.8,2.8,1.1,4.3c0.1,0.4,0.1,0.8,0.2,1.1c0,0.3,0.1,0.5,0.1,0.8s0.1,0.5,0.1,0.8c0,0.1,0,0.3,0,0.4c0,0.3,0,0.5,0,0.8
		C68,31.7,68,32.2,68,32.8z"/>
	<g>
		
			<linearGradient id="SVGID_1_" gradientUnits="userSpaceOnUse" x1="92.7294" y1="1302.947" x2="110.4701" y2="1319.8151" gradientTransform="matrix(1 0 0 1 0 -1258)">
			<stop  offset="0" style="stop-color:#E6379E"/>
			<stop  offset="1" style="stop-color:#93278F"/>
		</linearGradient>
		<path class="st1" d="M80.5,21.3l-4.1,1.3v5.7H73v3.4h3.4v6.8c0,3.8,2.1,5.9,5.8,5.9c1.3,0,2.6-0.4,4.1-1.2l-1.2-3.5
			c-0.9,0.5-1.8,0.8-2.6,0.8c-1.3,0-2-0.8-2-2.4v-6.5h6.1v-3.4h-6.1C80.5,28.2,80.5,21.3,80.5,21.3z"/>
		
			<linearGradient id="SVGID_2_" gradientUnits="userSpaceOnUse" x1="99.7879" y1="1295.5236" x2="117.5285" y2="1312.3916" gradientTransform="matrix(1 0 0 1 0 -1258)">
			<stop  offset="0" style="stop-color:#E6379E"/>
			<stop  offset="1" style="stop-color:#93278F"/>
		</linearGradient>
		<path class="st2" d="M100.5,29.5c-1.4-1.2-3.1-1.7-5.2-1.7c-2,0-3.9,0.8-5.4,2.4s-2.3,3.6-2.3,5.9c0,2.4,0.8,4.4,2.3,5.9
			c1.5,1.6,3.3,2.4,5.4,2.4c2,0,3.8-0.6,5.2-1.7v1.2h4.1V28.2h-4.1V29.5z M99.1,39.5c-0.9,0.8-1.9,1.3-3.1,1.3
			c-2.5,0-4.4-1.8-4.4-4.7s1.9-4.7,4.4-4.7c1.2,0,2.2,0.4,3.1,1.3c0.9,0.9,1.4,2,1.4,3.4S100,38.6,99.1,39.5z"/>
		
			<linearGradient id="SVGID_3_" gradientUnits="userSpaceOnUse" x1="107.4366" y1="1287.479" x2="125.1772" y2="1304.3473" gradientTransform="matrix(1 0 0 1 0 -1258)">
			<stop  offset="0" style="stop-color:#E6379E"/>
			<stop  offset="1" style="stop-color:#93278F"/>
		</linearGradient>
		<path class="st3" d="M113.2,31v-2.7H109V44h4.1v-5.1c0-4.5,1.9-6.7,5.6-6.7h0.9l0.2-4c-0.3-0.1-0.6-0.1-1.1-0.1
			C116.3,28,114.4,29,113.2,31z"/>
		
			<linearGradient id="SVGID_4_" gradientUnits="userSpaceOnUse" x1="113.2718" y1="1281.3422" x2="131.0124" y2="1298.2103" gradientTransform="matrix(1 0 0 1 0 -1258)">
			<stop  offset="0" style="stop-color:#E6379E"/>
			<stop  offset="1" style="stop-color:#93278F"/>
		</linearGradient>
		<path class="st4" d="M134,29.5c-1.4-1.2-3.1-1.7-5.2-1.7c-2,0-3.9,0.8-5.4,2.4s-2.3,3.6-2.3,5.9c0,2.4,0.8,4.4,2.3,5.9
			c1.5,1.6,3.3,2.4,5.4,2.4c2,0,3.8-0.6,5.2-1.7v2.2c0,2.6-1.9,4.1-4.7,4.1c-2,0-3-0.6-4.3-2.3l-3.4,2.9c1.4,2.3,4,3.5,7.6,3.5
			c2.6,0,4.7-0.7,6.3-2c1.7-1.3,2.5-3.1,2.5-5.5V28.2h-4V29.5z M132.6,39.5c-0.9,0.8-1.9,1.3-3.1,1.3c-2.5,0-4.4-1.8-4.4-4.7
			s1.9-4.7,4.4-4.7c1.2,0,2.2,0.4,3.1,1.3c0.9,0.9,1.4,2,1.4,3.4S133.5,38.6,132.6,39.5z"/>
		
			<linearGradient id="SVGID_5_" gradientUnits="userSpaceOnUse" x1="123.9167" y1="1270.1466" x2="141.6574" y2="1287.0146" gradientTransform="matrix(1 0 0 1 0 -1258)">
			<stop  offset="0" style="stop-color:#E6379E"/>
			<stop  offset="1" style="stop-color:#93278F"/>
		</linearGradient>
		<path class="st5" d="M149.4,27.8c-2.3,0-4.2,0.8-5.8,2.4c-1.5,1.5-2.3,3.6-2.3,6c0,2.4,0.8,4.4,2.3,6s3.5,2.3,5.7,2.3
			c3.5,0,6.3-1.7,7.6-4.8l-3.7-0.8c-0.8,1.4-2.1,2.1-3.9,2.1c-1.9,0-3.5-1.4-3.9-3.6h11.9V36c-0.1-2.4-0.9-4.3-2.5-5.8
			C153.3,28.5,151.5,27.8,149.4,27.8z M145.5,34.3c0.5-1.9,2.1-2.9,3.9-2.9c1.8,0,3.2,1,3.7,2.9H145.5z"/>
		
			<linearGradient id="SVGID_6_" gradientUnits="userSpaceOnUse" x1="133.1828" y1="1260.4012" x2="150.9234" y2="1277.2693" gradientTransform="matrix(1 0 0 1 0 -1258)">
			<stop  offset="0" style="stop-color:#E6379E"/>
			<stop  offset="1" style="stop-color:#93278F"/>
		</linearGradient>
		<path class="st6" d="M171.8,31.6v-3.4h-6.1v-6.9l-4.1,1.3v5.7h-3.4v3.4h3.4v6.8c0,3.8,2.1,5.9,5.8,5.9c1.3,0,2.6-0.4,4.1-1.2
			l-1.2-3.5c-0.9,0.5-1.8,0.8-2.6,0.8c-1.3,0-2-0.8-2-2.4v-6.5H171.8z"/>
		
			<linearGradient id="SVGID_7_" gradientUnits="userSpaceOnUse" x1="72.2194" y1="1324.5178" x2="89.96" y2="1341.386" gradientTransform="matrix(1 0 0 1 0 -1258)">
			<stop  offset="0" style="stop-color:#E6379E"/>
			<stop  offset="1" style="stop-color:#93278F"/>
		</linearGradient>
		<path class="st7" d="M38.2,8.5C24,8.5,12.6,19.9,12.5,34.1c0,14.1,11.4,25.6,25.6,25.6c14.1,0,25.6-11.4,25.6-25.6
			C63.8,20,52.3,8.5,38.2,8.5z M38.1,54.4c-11.2,0-20.3-9.1-20.3-20.3s9.1-20.3,20.3-20.3s20.3,9.1,20.3,20.3
			C58.4,45.3,49.3,54.4,38.1,54.4z"/>
		
			<linearGradient id="SVGID_8_" gradientUnits="userSpaceOnUse" x1="72.2374" y1="1324.499" x2="89.978" y2="1341.3671" gradientTransform="matrix(1 0 0 1 0 -1258)">
			<stop  offset="0" style="stop-color:#E6379E"/>
			<stop  offset="1" style="stop-color:#93278F"/>
		</linearGradient>
		<path class="st8" d="M38.2,18.7c-8.5,0-15.4,6.9-15.4,15.4s6.9,15.4,15.4,15.4s15.4-6.9,15.4-15.4C53.5,25.6,46.6,18.7,38.2,18.7z
			 M38.1,44.9c-5.9,0-10.7-4.8-10.7-10.7s4.8-10.7,10.7-10.7s10.7,4.8,10.7,10.7C48.9,40.1,44.1,44.9,38.1,44.9z"/>
		
			<linearGradient id="SVGID_9_" gradientUnits="userSpaceOnUse" x1="72.3463" y1="1324.3845" x2="90.0869" y2="1341.2526" gradientTransform="matrix(1 0 0 1 0 -1258)">
			<stop  offset="0" style="stop-color:#E6379E"/>
			<stop  offset="1" style="stop-color:#93278F"/>
		</linearGradient>
		<path class="st9" d="M36.1,29.1c-2.6,1.1-3.8,4.2-2.7,6.8c1.1,2.6,4.2,3.8,6.8,2.7s3.8-4.2,2.7-6.8C41.7,29.2,38.7,28,36.1,29.1z"
			/>
		
			<linearGradient id="SVGID_10_" gradientUnits="userSpaceOnUse" x1="111.5337" y1="1283.17" x2="129.2743" y2="1300.0383" gradientTransform="matrix(1 0 0 1 0 -1258)">
			<stop  offset="0" style="stop-color:#E6379E"/>
			<stop  offset="1" style="stop-color:#93278F"/>
		</linearGradient>
		<path class="st10" d="M144.5,50.3c-1.1,0-2,0.4-2.6,1.2v-1h-1v10h1v-4.7c0.6,0.8,1.5,1.2,2.6,1.2c0.9,0,1.6-0.3,2.3-0.9
			c0.6-0.6,1-1.5,1-2.4c0-1-0.3-1.8-1-2.4C146.1,50.6,145.4,50.3,144.5,50.3z M146,55.5c-0.5,0.5-1,0.7-1.7,0.7
			c-0.6,0-1.2-0.2-1.7-0.7s-0.7-1.1-0.7-1.8s0.2-1.3,0.7-1.8s1-0.7,1.7-0.7s1.3,0.2,1.7,0.7s0.7,1.1,0.7,1.8S146.5,55,146,55.5z"/>
		
			<linearGradient id="SVGID_11_" gradientUnits="userSpaceOnUse" x1="116.2894" y1="1278.1685" x2="134.03" y2="1295.0366" gradientTransform="matrix(1 0 0 1 0 -1258)">
			<stop  offset="0" style="stop-color:#E6379E"/>
			<stop  offset="1" style="stop-color:#93278F"/>
		</linearGradient>
		<path class="st11" d="M150.4,52v-1.6h-1v6.5h1v-2.5c0-0.9,0.2-1.6,0.7-2.2c0.5-0.6,1.1-0.9,1.9-0.9c0.2,0,0.3,0,0.4,0l0.1-1
			c-0.1,0-0.3-0.1-0.4-0.1C151.8,50.3,151,50.9,150.4,52z"/>
		
			<linearGradient id="SVGID_12_" gradientUnits="userSpaceOnUse" x1="120.9613" y1="1273.2548" x2="138.7019" y2="1290.123" gradientTransform="matrix(1 0 0 1 0 -1258)">
			<stop  offset="0" style="stop-color:#E6379E"/>
			<stop  offset="1" style="stop-color:#93278F"/>
		</linearGradient>
		<path class="st12" d="M155.4,47.3c-0.4,0-0.7,0.3-0.7,0.7s0.3,0.7,0.7,0.7s0.7-0.3,0.7-0.7C156.1,47.6,155.8,47.3,155.4,47.3z"/>
		
			<linearGradient id="SVGID_13_" gradientUnits="userSpaceOnUse" x1="118.1397" y1="1276.2224" x2="135.8804" y2="1293.0905" gradientTransform="matrix(1 0 0 1 0 -1258)">
			<stop  offset="0" style="stop-color:#E6379E"/>
			<stop  offset="1" style="stop-color:#93278F"/>
		</linearGradient>
		<rect x="154.9" y="50.4" class="st13" width="1" height="6.5"/>
		
			<linearGradient id="SVGID_14_" gradientUnits="userSpaceOnUse" x1="120.6252" y1="1273.6083" x2="138.366" y2="1290.4764" gradientTransform="matrix(1 0 0 1 0 -1258)">
			<stop  offset="0" style="stop-color:#E6379E"/>
			<stop  offset="1" style="stop-color:#93278F"/>
		</linearGradient>
		<path class="st14" d="M161.7,50.3c-1.1,0-1.9,0.4-2.4,1.2v-1.1h-1v6.5h1v-3.1c0-1.6,0.9-2.6,2.2-2.6c1.1,0,1.8,0.8,1.8,2v3.7h1V53
			c0-0.8-0.2-1.5-0.7-2C163.1,50.5,162.5,50.3,161.7,50.3z"/>
		
			<linearGradient id="SVGID_15_" gradientUnits="userSpaceOnUse" x1="124.7654" y1="1269.254" x2="142.506" y2="1286.1222" gradientTransform="matrix(1 0 0 1 0 -1258)">
			<stop  offset="0" style="stop-color:#E6379E"/>
			<stop  offset="1" style="stop-color:#93278F"/>
		</linearGradient>
		<path class="st15" d="M167.7,47.4l-1,0.3v2.6h-1.4v0.8h1.4v3.7c0,1.3,0.8,2.1,2.1,2.1c0.5,0,1-0.2,1.5-0.5l-0.3-0.8
			c-0.4,0.3-0.7,0.4-1.1,0.4c-0.7,0-1.1-0.5-1.1-1.2v-3.6h2.8v-0.8h-2.8L167.7,47.4L167.7,47.4z"/>
	</g>
</g>
</svg>
